#!OML:ASF G:\JayActor3\Patient Classification 1\Patient 1\Session 6\male.ASF
:FULLY-SPECIFIED
:DEGREES
2415
root 0.786412 15.8315 -22.9177 549.173 -56.7262 -548.232
lowerback -1.30302 4.29294 1.88948
upperback -3.91102 5.48433 -4.64535
thorax -2.67228 2.55891 -5.89953
lowerneck -3.13386 -1.69815 -6.3966
upperneck -2.19023 -2.08584 2.61561
head -0.0525184 -1.01186 1.88545
rclavicle 1.44516e-013 -3.10104e-014
rhumerus -36.168 -22.8372 -79.6354
rradius 56.0102
rwrist 8.99239
rhand -57.8785 -10.7698
rfingers 7.12502
rthumb -30.13 -38.3335
lclavicle 1.44516e-013 -3.10104e-014
lhumerus -84.9651 -29.2054 99.9058
lradius 99.1503
lwrist -1.61072
lhand -30.6495 -42.8075
lfingers 7.12502
lthumb -3.9447 -12.8642
rfemur -25.8121 -24.6986 10.964
rtibia 55.3128
rfoot -35.4399 -21.106
rtoes 7.02464
lfemur -12.33 31.0215 -28.7733
ltibia 33.3286
lfoot -15.3262 -28.9028
ltoes 22.2533
2416
root 0.784956 15.831 -22.9172 549.127 -56.6897 -548.212
lowerback -1.30985 4.29315 1.90367
upperback -3.91241 5.48452 -4.64702
thorax -2.66843 2.55862 -5.90873
lowerneck -3.10694 -1.71294 -6.40038
upperneck -2.17284 -2.10694 2.60116
head -0.0508004 -1.0226 1.88128
rclavicle 8.21478e-014 4.29375e-014
rhumerus -36.1708 -22.8145 -79.6633
rradius 56.0276
rwrist 8.94184
rhand -57.8449 -10.804
rfingers 7.12502
rthumb -30.0979 -38.3735
lclavicle 8.21478e-014 4.29375e-014
lhumerus -84.9689 -29.2004 99.9002
lradius 99.1517
lwrist -1.57228
lhand -30.6424 -42.8137
lfingers 7.12502
lthumb -3.93782 -12.8703
rfemur -25.7859 -24.7083 10.9505
rtibia 55.316
rfoot -35.3973 -21.0914
rtoes 7.00806
lfemur -12.282 31.0256 -28.7542
ltibia 33.319
lfoot -15.383 -28.8564
ltoes 22.1708
2417
root 0.783547 15.8306 -22.9167 549.078 -56.6582 -548.188
lowerback -1.31375 4.29361 1.92021
upperback -3.91661 5.48498 -4.64795
thorax -2.66896 2.55824 -5.91888
lowerneck -3.081 -1.73092 -6.41135
upperneck -2.15255 -2.13192 2.59383
head -0.0476525 -1.03523 1.88066
rclavicle -1.02573e-013 -2.06736e-014
rhumerus -36.1806 -22.7975 -79.6819
rradius 56.0478
rwrist 8.88566
rhand -57.8039 -10.8123
rfingers 7.12502
rthumb -30.0587 -38.3889
lclavicle -1.02573e-013 -2.06736e-014
lhumerus -84.9781 -29.1905 99.894
lradius 99.1594
lwrist -1.52984
lhand -30.616 -42.8106
lfingers 7.12502
lthumb -3.91231 -12.8668
rfemur -25.7597 -24.7173 10.942
rtibia 55.3161
rfoot -35.3482 -21.092
rtoes 6.97
lfemur -12.2357 31.0207 -28.7327
ltibia 33.3104
lfoot -15.4458 -28.8032
ltoes 22.0799
2418
root 0.78234 15.8304 -22.9162 549.028 -56.6293 -548.16
lowerback -1.31797 4.2954 1.93781
upperback -3.92044 5.48729 -4.64888
thorax -2.66863 2.55881 -5.92957
lowerneck -3.06655 -1.75161 -6.42918
upperneck -2.1254 -2.15948 2.59544
head -0.0400829 -1.04913 1.88403
rclavicle -2.44008e-014 -4.92986e-014
rhumerus -36.1877 -22.791 -79.6939
rradius 56.066
rwrist 8.83098
rhand -57.7554 -10.7844
rfingers 7.12502
rthumb -30.0125 -38.3694
lclavicle -2.44008e-014 -4.92986e-014
lhumerus -84.9856 -29.1797 99.885
lradius 99.1676
lwrist -1.49794
lhand -30.5908 -42.7951
lfingers 7.12502
lthumb -3.88803 -12.8508
rfemur -25.735 -24.7218 10.9383
rtibia 55.314
rfoot -35.3055 -21.0926
rtoes 6.93315
lfemur -12.194 31.0052 -28.711
ltibia 33.3028
lfoot -15.5091 -28.7415
ltoes 21.9876
2419
root 0.781399 15.8303 -22.9157 548.979 -56.6019 -548.129
lowerback -1.32242 4.29861 1.95465
upperback -3.92479 5.49148 -4.64962
thorax -2.66857 2.56033 -5.93961
lowerneck -3.06782 -1.77328 -6.45503
upperneck -2.0863 -2.18692 2.60843
head -0.0258546 -1.06297 1.89236
rclavicle 4.87022e-015 -1.19271e-014
rhumerus -36.1893 -22.7947 -79.6989
rradius 56.0774
rwrist 8.77732
rhand -57.7009 -10.7258
rfingers 7.12502
rthumb -29.9605 -38.3202
lclavicle 4.87022e-015 -1.19271e-014
lhumerus -84.9906 -29.1668 99.8739
lradius 99.1746
lwrist -1.47758
lhand -30.5665 -42.7707
lfingers 7.12502
lthumb -3.86449 -12.826
rfemur -25.7146 -24.7178 10.9399
rtibia 55.3112
rfoot -35.2745 -21.0891
rtoes 6.92115
lfemur -12.1597 30.9802 -28.6911
ltibia 33.2962
lfoot -15.5719 -28.6712
ltoes 21.8949
2420
root 0.780563 15.8303 -22.9153 548.933 -56.5774 -548.1
lowerback -1.32501 4.30167 1.96876
upperback -3.92938 5.49539 -4.65073
thorax -2.67004 2.56172 -5.9487
lowerneck -3.07718 -1.79525 -6.4772
upperneck -2.04233 -2.2143 2.62343
head -0.00872943 -1.07682 1.90059
rclavicle 4.1546e-014 7.95139e-016
rhumerus -36.1874 -22.8041 -79.6991
rradius 56.0815
rwrist 8.72835
rhand -57.6485 -10.6648
rfingers 7.12502
rthumb -29.9105 -38.2682
lclavicle 4.1546e-014 7.95139e-016
lhumerus -84.9946 -29.1484 99.8603
lradius 99.18
lwrist -1.46834
lhand -30.5502 -42.7397
lfingers 7.12502
lthumb -3.84876 -12.7948
rfemur -25.6941 -24.7101 10.9417
rtibia 55.3085
rfoot -35.2568 -21.0773
rtoes 6.91559
lfemur -12.1277 30.9533 -28.6722
ltibia 33.2899
lfoot -15.6314 -28.6008
ltoes 21.8019
2421
root 0.77987 15.8303 -22.9148 548.897 -56.5536 -548.08
lowerback -1.32575 4.3051 1.9764
upperback -3.93566 5.49947 -4.65428
thorax -2.67465 2.56314 -5.95696
lowerneck -3.08563 -1.81827 -6.49824
upperneck -1.99993 -2.24313 2.64433
head 0.00790678 -1.09138 1.91055
rclavicle -6.15239e-014 -1.43125e-014
rhumerus -36.1811 -22.8223 -79.6949
rradius 56.0739
rwrist 8.68825
rhand -57.5987 -10.6023
rfingers 7.12502
rthumb -29.863 -38.2143
lclavicle -6.15239e-014 -1.43125e-014
lhumerus -84.998 -29.1257 99.8423
lradius 99.1862
lwrist -1.4626
lhand -30.5272 -42.7081
lfingers 7.12502
lthumb -3.82653 -12.7627
rfemur -25.676 -24.698 10.9391
rtibia 55.3078
rfoot -35.2532 -21.0552
rtoes 6.92974
lfemur -12.0991 30.9264 -28.6599
ltibia 33.2834
lfoot -15.6825 -28.5357
ltoes 21.7208
2422
root 0.779173 15.8301 -22.9144 548.87 -56.5336 -548.071
lowerback -1.32309 4.30768 1.97692
upperback -3.94396 5.50205 -4.65985
thorax -2.68392 2.56373 -5.96377
lowerneck -3.08623 -1.84289 -6.51271
upperneck -1.96328 -2.2748 2.66571
head 0.0214922 -1.10735 1.91953
rclavicle 9.40251e-014 2.70347e-014
rhumerus -36.176 -22.8435 -79.6856
rradius 56.0593
rwrist 8.65733
rhand -57.5467 -10.5437
rfingers 7.12502
rthumb -29.8133 -38.1646
lclavicle 9.40251e-014 2.70347e-014
lhumerus -85.0044 -29.097 99.8233
lradius 99.1932
lwrist -1.45728
lhand -30.5059 -42.6778
lfingers 7.12502
lthumb -3.80603 -12.732
rfemur -25.6572 -24.6886 10.9297
rtibia 55.3087
rfoot -35.2476 -21.0399
rtoes 6.93579
lfemur -12.0689 30.9021 -28.6519
ltibia 33.2763
lfoot -15.7287 -28.4791
ltoes 21.6471
2423
root 0.77853 15.8298 -22.9141 548.854 -56.5169 -548.074
lowerback -1.31983 4.3087 1.9697
upperback -3.95497 5.50213 -4.66703
thorax -2.69716 2.56301 -5.96817
lowerneck -3.07389 -1.86801 -6.51838
upperneck -1.93576 -2.3083 2.68435
head 0.0299731 -1.12424 1.92616
rclavicle 1.3418e-014 8.74653e-015
rhumerus -36.1731 -22.862 -79.6735
rradius 56.0401
rwrist 8.63409
rhand -57.4952 -10.511
rfingers 7.12502
rthumb -29.7642 -38.1407
lclavicle 1.3418e-014 8.74653e-015
lhumerus -85.0142 -29.0599 99.8014
lradius 99.2023
lwrist -1.45529
lhand -30.4812 -42.6528
lfingers 7.12502
lthumb -3.78219 -12.7066
rfemur -25.6402 -24.6819 10.9145
rtibia 55.312
rfoot -35.2456 -21.0256
rtoes 6.9448
lfemur -12.0403 30.883 -28.6498
ltibia 33.2686
lfoot -15.7645 -28.435
ltoes 21.5954
2424
root 0.777939 15.8295 -22.9138 548.846 -56.5027 -548.083
lowerback -1.31829 4.30898 1.95583
upperback -3.96748 5.50095 -4.67487
thorax -2.71169 2.56169 -5.96947
lowerneck -3.05478 -1.89322 -6.5135
upperneck -1.91309 -2.34274 2.69577
head 0.0355929 -1.14165 1.92861
rclavicle 1.20265e-014 3.02153e-014
rhumerus -36.1677 -22.8801 -79.658
rradius 56.0147
rwrist 8.61655
rhand -57.4358 -10.4798
rfingers 7.12502
rthumb -29.7075 -38.1196
lclavicle 1.20265e-014 3.02153e-014
lhumerus -85.0254 -29.0165 99.7778
lradius 99.2121
lwrist -1.46081
lhand -30.4613 -42.6272
lfingers 7.12502
lthumb -3.76291 -12.6807
rfemur -25.6258 -24.6785 10.8965
rtibia 55.3163
rfoot -35.2402 -21.0198
rtoes 6.94047
lfemur -12.0146 30.8694 -28.6515
ltibia 33.2614
lfoot -15.7884 -28.404
ltoes 21.5641
2425
root 0.777396 15.8292 -22.9136 548.842 -56.4909 -548.094
lowerback -1.32056 4.30829 1.9382
upperback -3.98039 5.49841 -4.68147
thorax -2.72511 2.5598 -5.96707
lowerneck -3.0334 -1.91597 -6.50457
upperneck -1.89288 -2.37422 2.70376
head 0.039815 -1.15759 1.92928
rclavicle -1.08338e-013 1.27222e-014
rhumerus -36.1592 -22.8912 -79.6408
rradius 55.9886
rwrist 8.5937
rhand -57.3636 -10.4547
rfingers 7.12502
rthumb -29.6386 -38.1068
lclavicle -1.08338e-013 1.27222e-014
lhumerus -85.0362 -28.9658 99.7522
lradius 99.2226
lwrist -1.47084
lhand -30.4397 -42.604
lfingers 7.12502
lthumb -3.7421 -12.6571
rfemur -25.6146 -24.6759 10.8804
rtibia 55.3209
rfoot -35.2326 -21.0262
rtoes 6.91577
lfemur -11.9927 30.8635 -28.6532
ltibia 33.2557
lfoot -15.8029 -28.3865
ltoes 21.5544
